<svg width="820" height="430" viewBox="70 70 820 430" fill="none" xmlns="http://www.w3.org/2000/svg" role="img" aria-labelledby="title desc">
  <title id="title">Angie's Cafe and Bakery logo</title>
  <desc id="desc">A pink floral bakery logo with the text Angie's Cafe and Bakery, plus a cupcake, coffee cup, croissant, and rolling pin.</desc>
  <g opacity="0.95">
    <path d="M177 119C140 152 119 201 117 249C115 298 136 351 172 386" stroke="#F8A7BE" stroke-width="4" stroke-linecap="round"/>
    <path d="M783 119C820 152 841 201 843 249C845 298 824 351 788 386" stroke="#F8A7BE" stroke-width="4" stroke-linecap="round"/>
    <path d="M220 86C198 106 183 132 176 160" stroke="#F3C6D5" stroke-width="5" stroke-linecap="round"/>
    <path d="M740 86C762 106 777 132 784 160" stroke="#F3C6D5" stroke-width="5" stroke-linecap="round"/>
  </g>

  <g transform="translate(94 300)">
    <ellipse cx="52" cy="95" rx="28" ry="18" fill="#9DB86D"/>
    <ellipse cx="16" cy="56" rx="20" ry="11" transform="rotate(-35 16 56)" fill="#B7CC81"/>
    <ellipse cx="78" cy="44" rx="21" ry="12" transform="rotate(32 78 44)" fill="#B7CC81"/>
    <circle cx="48" cy="78" r="32" fill="#F59CB9"/>
    <circle cx="25" cy="94" r="23" fill="#F8B5C8"/>
    <circle cx="77" cy="101" r="22" fill="#F8B5C8"/>
    <circle cx="55" cy="113" r="20" fill="#F28CAD"/>
    <circle cx="47" cy="82" r="12" fill="#FFDFB9"/>
  </g>

  <g transform="translate(730 300)">
    <ellipse cx="52" cy="95" rx="28" ry="18" fill="#9DB86D"/>
    <ellipse cx="16" cy="56" rx="20" ry="11" transform="rotate(-35 16 56)" fill="#B7CC81"/>
    <ellipse cx="78" cy="44" rx="21" ry="12" transform="rotate(32 78 44)" fill="#B7CC81"/>
    <circle cx="48" cy="78" r="32" fill="#F59CB9"/>
    <circle cx="25" cy="94" r="23" fill="#F8B5C8"/>
    <circle cx="77" cy="101" r="22" fill="#F8B5C8"/>
    <circle cx="55" cy="113" r="20" fill="#F28CAD"/>
    <circle cx="47" cy="82" r="12" fill="#FFDFB9"/>
  </g>

  <g transform="translate(160 138)">
    <ellipse cx="32" cy="44" rx="12" ry="28" transform="rotate(-22 32 44)" fill="#98B26A"/>
    <ellipse cx="18" cy="84" rx="11" ry="22" transform="rotate(-55 18 84)" fill="#AFC780"/>
    <circle cx="58" cy="62" r="18" fill="#F6B6C8"/>
    <circle cx="38" cy="82" r="16" fill="#F7C8D6"/>
    <circle cx="70" cy="88" r="15" fill="#F7C8D6"/>
    <circle cx="58" cy="78" r="8" fill="#FFDDBE"/>
  </g>

  <g transform="translate(715 138)">
    <ellipse cx="46" cy="44" rx="12" ry="28" transform="rotate(22 46 44)" fill="#98B26A"/>
    <ellipse cx="62" cy="84" rx="11" ry="22" transform="rotate(55 62 84)" fill="#AFC780"/>
    <circle cx="20" cy="62" r="18" fill="#F6B6C8"/>
    <circle cx="40" cy="82" r="16" fill="#F7C8D6"/>
    <circle cx="8" cy="88" r="15" fill="#F7C8D6"/>
    <circle cx="20" cy="78" r="8" fill="#FFDDBE"/>
  </g>

  <text x="480" y="160" text-anchor="middle" fill="#F3608B" font-size="126" font-family="'Snell Roundhand','Brush Script MT',cursive" font-weight="700">
    Angie's
  </text>

  <g transform="translate(256 188)">
    <path d="M54 40H394C406 40 416 49 416 62V64C416 72 412 79 405 84L381 102H89L65 84C58 79 54 72 54 64V40Z" fill="#F7D8D2"/>
    <path d="M49 41L17 62L49 77V41Z" fill="#F8C4CA"/>
    <path d="M421 41L453 62L421 77V41Z" fill="#F8C4CA"/>
    <rect x="73" y="24" width="324" height="60" rx="24" fill="#FFF3EB" stroke="#E9B7B9" stroke-width="3"/>
    <text x="235" y="67" text-anchor="middle" fill="#9A6746" font-size="44" font-family="'Cormorant Garamond', serif" font-weight="700" letter-spacing="2">
      CAFE &amp; BAKERY
    </text>
  </g>

  <g transform="translate(315 360)">
    <rect x="0" y="104" width="330" height="24" rx="12" fill="#D9A36E"/>
    <rect x="34" y="88" width="262" height="56" rx="18" fill="#E8BC86"/>
    <rect x="20" y="98" width="28" height="36" rx="14" fill="#D9A36E"/>
    <rect x="282" y="98" width="28" height="36" rx="14" fill="#D9A36E"/>
  </g>

  <g transform="translate(292 295)">
    <path d="M0 78C0 48 16 18 49 18C81 18 97 48 97 78V102H0V78Z" fill="#C48A53"/>
    <path d="M16 86C20 58 37 35 49 35C60 35 77 58 81 86H16Z" fill="#E7B072"/>
    <path d="M18 48C4 40 6 21 22 17C20 2 42 -5 54 9C60 -6 83 0 80 18C96 17 102 40 86 49" fill="#F28AAF"/>
    <path d="M16 66C1 59 4 40 20 37C18 22 40 14 53 28C58 14 82 16 81 36C97 36 102 59 86 66" fill="#F59CB9"/>
  </g>

  <g transform="translate(426 276)">
    <rect x="20" y="40" width="92" height="112" rx="22" fill="#F3CBA8"/>
    <rect x="28" y="48" width="76" height="96" rx="18" fill="#FFF5ED"/>
    <path d="M108 67H126C144 67 152 80 152 95C152 109 144 122 126 122H111" stroke="#C48A53" stroke-width="12" stroke-linecap="round"/>
    <rect x="38" y="77" width="54" height="48" rx="12" fill="#F79CB7"/>
    <path d="M20 40H112V25C112 12 102 2 89 2H43C30 2 20 12 20 25V40Z" fill="#B37A57"/>
    <rect x="30" y="10" width="72" height="14" rx="7" fill="#D7A27A"/>
  </g>

  <g transform="translate(585 322)">
    <path d="M18 86C6 69 0 53 0 38C0 19 12 0 31 0C46 0 58 10 69 24C80 8 95 0 112 0C134 0 148 15 148 36C148 57 136 76 114 92L30 92C25 92 21 90 18 86Z" fill="#E5B06B"/>
    <path d="M20 78C24 53 39 28 66 12" stroke="#D0954E" stroke-width="5" stroke-linecap="round"/>
    <path d="M52 82C58 59 76 33 104 16" stroke="#D0954E" stroke-width="5" stroke-linecap="round"/>
    <path d="M82 84C91 60 109 39 130 25" stroke="#D0954E" stroke-width="5" stroke-linecap="round"/>
  </g>
</svg>
